<?xml version="1.0" standalone="no"?>
<!DOCTYPE svg PUBLIC "-//W3C//DTD SVG 20010904//EN"
 "http://www.w3.org/TR/2001/REC-SVG-20010904/DTD/svg10.dtd">
<svg version="1.0" xmlns="http://www.w3.org/2000/svg"
 width="160.000000pt" height="160.000000pt" viewBox="0 0 160.000000 160.000000"
 preserveAspectRatio="xMidYMid meet">
<metadata>
Created by potrace 1.14, written by Peter Selinger 2001-2017
</metadata>
<g transform="translate(0.000000,160.000000) scale(0.100000,-0.100000)"
fill="#000000" stroke="none">
<path d="M395 1112 c-46 -22 -74 -58 -82 -107 -11 -71 80 -113 132 -60 55 54
8 137 -70 123 -35 -7 -20 11 28 32 59 27 146 20 196 -14 49 -34 77 -92 83
-171 l3 -40 -50 -2 c-321 -9 -464 -83 -449 -231 11 -116 93 -175 240 -175 108
0 179 31 226 98 l33 47 6 -36 c7 -44 40 -82 85 -96 19 -7 113 -12 216 -12 208
-1 241 7 311 77 39 39 72 93 64 102 -3 2 -11 -6 -18 -18 -15 -29 -99 -119
-111 -119 -5 0 9 19 31 42 22 22 45 54 50 70 14 38 6 35 -23 -10 -93 -146
-242 -170 -327 -51 -70 98 -87 321 -33 435 44 93 129 139 201 109 63 -27 84
-52 77 -96 -5 -32 -2 -42 19 -63 34 -34 79 -34 112 -1 54 53 13 125 -94 166
-47 18 -73 20 -166 17 -123 -4 -188 -26 -257 -87 l-36 -31 -23 27 c-13 16 -36
35 -50 45 -73 47 -251 63 -324 30z m289 -355 c-1 -86 -5 -104 -30 -155 -38
-75 -89 -105 -180 -106 -35 0 -73 6 -88 13 -34 19 -66 86 -66 139 0 133 111
210 300 208 l65 -1 -1 -98z"/>
</g>
</svg>
